<?xml version="1.0" encoding="UTF-8"?>
<!DOCTYPE svg PUBLIC "-//W3C//DTD SVG 1.1//EN" "http://www.w3.org/Graphics/SVG/1.1/DTD/svg11.dtd">
<!-- Creator: CorelDRAW -->
<svg xmlns="http://www.w3.org/2000/svg" xml:space="preserve" width="15.875mm" height="15.875mm" version="1.1" style="shape-rendering:geometricPrecision; text-rendering:geometricPrecision; image-rendering:optimizeQuality; fill-rule:evenodd; clip-rule:evenodd"
viewBox="0 0 1587.5 1587.5"
 xmlns:xlink="http://www.w3.org/1999/xlink"
 xmlns:xodm="http://www.corel.com/coreldraw/odm/2003">
 <defs>
  <style type="text/css">
   <![CDATA[
    .fil4 {fill:none}
    .fil0 {fill:#38373A;fill-rule:nonzero}
    .fil1 {fill:#2E2D30;fill-rule:nonzero}
    .fil3 {fill:#D8D8D8;fill-rule:nonzero}
    .fil2 {fill:#F8FFFB;fill-rule:nonzero}
   ]]>
  </style>
   <clipPath id="id0">
    <path d="M-0 1587.5l1587.5 0 0 -1587.5 -1587.5 0 0 1587.5z"/>
   </clipPath>
 </defs>
 <g id="Слой_x0020_1">
  <metadata id="CorelCorpID_0Corel-Layer"/>
  <g>
  </g>
  <g style="clip-path:url(#id0)">
   <g id="_2726480038992">
    <path class="fil0" d="M793.75 1587.5c438.37,0 793.75,-355.38 793.75,-793.75 0,-438.37 -355.38,-793.75 -793.75,-793.75 -438.37,0 -793.75,355.38 -793.75,793.75 0,438.37 355.38,793.75 793.75,793.75z"/>
    <path class="fil1" d="M1577.69 918.6l-548.7 -548.7 -553.21 634.78 548.71 548.71c287.18,-87.12 505.45,-332.58 553.2,-634.79z"/>
    <path class="fil2" d="M1028.99 824.85l0 -454.95 -233.53 0 -319.68 458.61 0 176.17 373.38 0 0 212.92 179.83 0 0 -212.92 114.94 0 0 -179.83 -114.94 0zm-179.83 0l-151.62 0 151.62 -217.48 0 217.48z"/>
    <polygon class="fil3" points="1028.99,824.85 1028.99,369.9 795.46,369.9 793.75,372.35 793.75,686.84 849.16,607.37 849.16,824.85 793.75,824.85 793.75,1004.68 849.16,1004.68 849.16,1217.6 1028.99,1217.6 1028.99,1004.68 1143.93,1004.68 1143.93,824.85 "/>
   </g>
  </g>
  <polygon class="fil4" points="-0,1587.5 1587.5,1587.5 1587.5,0 -0,0 "/>
 </g>
</svg>
