<svg width="32" height="32" viewBox="0 0 32 32" fill="none" xmlns="http://www.w3.org/2000/svg">
<circle cx="15.6579" cy="15.6579" r="15.6579" fill="#FFCC29"/>
<path d="M17.5368 8.94727H14.6736C11.9178 8.94727 9.66309 11.202 9.66309 13.9578V16.1052C9.66309 18.0378 10.7905 19.8094 12.5262 20.6325V23.0304C12.5262 23.2452 12.7947 23.3525 12.9378 23.1915L15.0136 21.1157H17.5368C20.2925 21.1157 22.5473 18.8609 22.5473 16.1052V13.9578C22.5473 11.202 20.2925 8.94727 17.5368 8.94727ZM19.4157 18.342L18.682 19.0578C17.9126 19.8094 15.9262 18.9504 14.1726 17.1609C12.4189 15.3715 11.6494 13.3673 12.3831 12.6157L13.0989 11.8999C13.3673 11.6315 13.8147 11.6494 14.1189 11.9178L15.1568 12.9915C15.5326 13.3673 15.3715 14.0115 14.8883 14.1546C14.5483 14.262 14.3157 14.6378 14.4231 14.9778C14.602 15.7652 15.6041 16.7673 16.3557 16.9641C16.6957 17.0357 17.0715 16.8567 17.1968 16.5167C17.3578 16.0336 18.002 15.8904 18.3599 16.2662L19.3978 17.3399C19.6841 17.5904 19.6841 18.0378 19.4157 18.342ZM16.7494 12.3473C16.6778 12.3473 16.6062 12.3473 16.5347 12.3652C16.4094 12.3831 16.2841 12.2757 16.2662 12.1504C16.2483 12.0252 16.3557 11.8999 16.481 11.882C16.5704 11.8641 16.6599 11.8641 16.7494 11.8641C18.0557 11.8641 19.1294 12.9378 19.1294 14.2441C19.1294 14.3336 19.1294 14.4231 19.1115 14.5125C19.0936 14.6378 18.9683 14.7452 18.8431 14.7273C18.7178 14.7094 18.6104 14.5841 18.6283 14.4588C18.6283 14.3873 18.6462 14.3157 18.6462 14.2441C18.6641 13.2062 17.8052 12.3473 16.7494 12.3473ZM18.181 14.262C18.181 14.3873 18.0736 14.4946 17.9483 14.4946C17.8231 14.4946 17.7157 14.3873 17.7157 14.262C17.7157 13.7431 17.2862 13.3136 16.7673 13.3136C16.642 13.3136 16.5347 13.2062 16.5347 13.0809C16.5347 12.9557 16.642 12.8483 16.7673 12.8483C17.5368 12.8304 18.181 13.4746 18.181 14.262ZM20.0062 15.0315C19.9704 15.1567 19.8452 15.2462 19.702 15.2104C19.5768 15.1746 19.5052 15.0494 19.541 14.9241C19.5947 14.7094 19.6125 14.4946 19.6125 14.262C19.6125 12.6873 18.3241 11.3988 16.7494 11.3988C16.6778 11.3988 16.6062 11.3988 16.5347 11.3988C16.4094 11.3988 16.2841 11.3094 16.2841 11.1841C16.2841 11.0588 16.3736 10.9336 16.4989 10.9336C16.5883 10.9336 16.6778 10.9157 16.7494 10.9157C18.5926 10.9157 20.0957 12.4188 20.0957 14.262C20.0957 14.5125 20.0599 14.7809 20.0062 15.0315Z" fill="#39373A"/>
</svg>
