<svg width="32" height="32" viewBox="0 0 32 32" fill="none" xmlns="http://www.w3.org/2000/svg">
<circle cx="15.6579" cy="15.6579" r="15.6579" fill="#FFCC29"/>
<g clip-path="url(#clip0_142_47)">
<path d="M12.1488 13.4209H8.94739V23.263H12.1488V13.4209Z" fill="#39373A"/>
<path d="M20.8688 13.5363C20.8348 13.5256 20.8026 13.514 20.7668 13.5041C20.7239 13.4943 20.6809 13.4862 20.6371 13.4791C20.4671 13.4451 20.281 13.4209 20.0627 13.4209C18.1962 13.4209 17.0125 14.7782 16.6224 15.3025V13.4209H13.421V23.263H16.6224V17.8946C16.6224 17.8946 19.0418 14.525 20.0627 16.9998C20.0627 19.209 20.0627 23.263 20.0627 23.263H23.2631V16.6214C23.2631 15.1343 22.244 13.8951 20.8688 13.5363Z" fill="#39373A"/>
<path d="M10.5132 12.0788C11.3779 12.0788 12.079 11.3778 12.079 10.5131C12.079 9.64829 11.3779 8.94727 10.5132 8.94727C9.64842 8.94727 8.94739 9.64829 8.94739 10.5131C8.94739 11.3778 9.64842 12.0788 10.5132 12.0788Z" fill="#39373A"/>
</g>
<defs>
<clipPath id="clip0_142_47">
<rect width="14.3158" height="14.3158" fill="white" transform="translate(8.94739 8.94727)"/>
</clipPath>
</defs>
</svg>
