<svg width="32" height="32" viewBox="0 0 32 32" fill="none" xmlns="http://www.w3.org/2000/svg">
<circle cx="15.6579" cy="15.6579" r="15.6579" fill="#FFCC29"/>
<g clip-path="url(#clip0_142_59)">
<path d="M19.4605 7.1582H12.7499C9.66198 7.1582 7.15784 9.66235 7.15784 12.7503V19.4608C7.15784 22.5488 9.66198 25.0529 12.7499 25.0529H19.4605C22.5484 25.0529 25.0526 22.5488 25.0526 19.4608V12.7503C25.0526 9.66235 22.5484 7.1582 19.4605 7.1582ZM23.3749 19.4608C23.3749 21.6194 21.619 23.3753 19.4605 23.3753H12.7499C10.5914 23.3753 8.83547 21.6194 8.83547 19.4608V12.7503C8.83547 10.5918 10.5914 8.83583 12.7499 8.83583H19.4605C21.619 8.83583 23.3749 10.5918 23.3749 12.7503V19.4608Z" fill="#39373A"/>
<path d="M16.1052 11.6318C13.6346 11.6318 11.6315 13.6349 11.6315 16.1055C11.6315 18.5761 13.6346 20.5792 16.1052 20.5792C18.5757 20.5792 20.5788 18.5761 20.5788 16.1055C20.5788 13.6349 18.5757 11.6318 16.1052 11.6318ZM16.1052 18.9016C14.564 18.9016 13.3091 17.6467 13.3091 16.1055C13.3091 14.5632 14.564 13.3095 16.1052 13.3095C17.6463 13.3095 18.9012 14.5632 18.9012 16.1055C18.9012 17.6467 17.6463 18.9016 16.1052 18.9016Z" fill="#39373A"/>
<path d="M20.9145 11.8924C21.2437 11.8924 21.5106 11.6255 21.5106 11.2963C21.5106 10.9671 21.2437 10.7002 20.9145 10.7002C20.5853 10.7002 20.3184 10.9671 20.3184 11.2963C20.3184 11.6255 20.5853 11.8924 20.9145 11.8924Z" fill="#39373A"/>
</g>
<defs>
<clipPath id="clip0_142_59">
<rect width="17.8947" height="17.8947" fill="white" transform="translate(7.15784 7.1582)"/>
</clipPath>
</defs>
</svg>
