<?xml version="1.0" encoding="UTF-8"?>
<!DOCTYPE svg PUBLIC "-//W3C//DTD SVG 1.1//EN" "http://www.w3.org/Graphics/SVG/1.1/DTD/svg11.dtd">
<!-- Creator: CorelDRAW -->
<svg xmlns="http://www.w3.org/2000/svg" xml:space="preserve" width="15.875mm" height="15.875mm" version="1.1" style="shape-rendering:geometricPrecision; text-rendering:geometricPrecision; image-rendering:optimizeQuality; fill-rule:evenodd; clip-rule:evenodd"
viewBox="0 0 1587.5 1587.5"
 xmlns:xlink="http://www.w3.org/1999/xlink"
 xmlns:xodm="http://www.corel.com/coreldraw/odm/2003">
 <defs>
  <style type="text/css">
   <![CDATA[
    .fil3 {fill:none}
    .fil0 {fill:#FECC22;fill-rule:nonzero}
    .fil1 {fill:#F6A523;fill-rule:nonzero}
    .fil2 {fill:white;fill-rule:nonzero}
   ]]>
  </style>
   <clipPath id="id0">
    <path d="M-0 1587.5l1587.5 0 0 -1587.5 -1587.5 0 0 1587.5z"/>
   </clipPath>
 </defs>
 <g id="Слой_x0020_1">
  <metadata id="CorelCorpID_0Corel-Layer"/>
  <g>
  </g>
  <g style="clip-path:url(#id0)">
   <g id="_2688997758016">
    <path class="fil0" d="M793.75 1587.5c438.37,0 793.75,-355.38 793.75,-793.75 0,-438.37 -355.38,-793.75 -793.75,-793.75 -438.37,0 -793.75,355.38 -793.75,793.75 0,438.37 355.38,793.75 793.75,793.75z"/>
    <path class="fil1" d="M879.29 1582.9c341.17,-36.56 617.63,-289.27 689.76,-618.5l-511.8 -511.81c0,0 -418.73,-11.57 -569.97,237.19l222.87 223.44 -198.47 304.38 367.61 365.3z"/>
    <path class="fil2" d="M1123.89 1217.6l-612.2 0 0 -206.65 393.17 -297.67c49.86,-37.74 37.85,-90.37 32.98,-105.61 -4.69,-14.67 -24.66,-62.69 -84.67,-64.44 -1.33,-0.04 -3.69,-0.06 -4.63,-0.07l-69.52 0c-102.41,0 -110.37,112.22 -110.37,146.62l-181.37 0c0,-193.12 119.97,-327.99 291.74,-327.99l70.55 0c0,0 5.93,0.05 8.88,0.14 117.28,3.42 216.25,78.2 252.15,190.51 36.37,113.76 -1.42,233.65 -96.25,305.45l-235.56 178.34 345.11 0 0 181.37 -0.01 0z"/>
    <path class="fil2" d="M1014.34 857.87l-208.58 157.92 0 -227.5 99.1 -75.02c49.84,-37.74 37.83,-90.37 32.99,-105.6 -4.69,-14.7 -24.68,-62.7 -84.69,-64.45 -1.34,-0.03 -3.69,-0.06 -4.63,-0.06l-42.78 0 0 -181.37 43.82 0c0,0 5.91,0.06 8.88,0.12 117.26,3.44 216.24,78.21 252.14,190.54 36.37,113.73 -1.41,233.62 -96.25,305.42z"/>
    <polygon class="fil2" points="805.76,1036.22 1123.88,1036.22 1123.88,1217.59 805.76,1217.59 "/>
   </g>
  </g>
  <polygon class="fil3" points="-0,1587.5 1587.5,1587.5 1587.5,0 -0,0 "/>
 </g>
</svg>
