<svg width="32" height="32" viewBox="0 0 32 32" fill="none" xmlns="http://www.w3.org/2000/svg">
<circle cx="15.6579" cy="15.6579" r="15.6579" fill="#FFCC29"/>
<g clip-path="url(#clip0_142_76)">
<path d="M24.292 11.1396C23.8067 10.2762 23.2799 10.1174 22.2073 10.057C21.1359 9.9843 18.4416 9.9541 16.1074 9.9541C13.7688 9.9541 11.0734 9.9843 10.0031 10.0559C8.93277 10.1174 8.40488 10.2751 7.91501 11.1396C7.41507 12.0019 7.15784 13.4872 7.15784 16.1021C7.15784 16.1043 7.15784 16.1054 7.15784 16.1054C7.15784 16.1077 7.15784 16.1088 7.15784 16.1088V16.111C7.15784 18.7147 7.41507 20.2111 7.91501 21.0645C8.40488 21.9279 8.93165 22.0845 10.002 22.1572C11.0734 22.2198 13.7688 22.2567 16.1074 22.2567C18.4416 22.2567 21.1359 22.2198 22.2084 22.1583C23.281 22.0856 23.8078 21.929 24.2932 21.0656C24.7976 20.2123 25.0526 18.7158 25.0526 16.1121C25.0526 16.1121 25.0526 16.1088 25.0526 16.1065C25.0526 16.1065 25.0526 16.1043 25.0526 16.1032C25.0526 13.4872 24.7976 12.0019 24.292 11.1396ZM13.8684 19.4607V12.7502L19.4605 16.1054L13.8684 19.4607Z" fill="#39373A"/>
</g>
<defs>
<clipPath id="clip0_142_76">
<rect width="17.8947" height="17.8947" fill="white" transform="translate(7.15784 7.1582)"/>
</clipPath>
</defs>
</svg>
