<svg width="32" height="32" viewBox="0 0 32 32" fill="none" xmlns="http://www.w3.org/2000/svg">
<circle cx="15.6579" cy="15.6579" r="15.6579" fill="#FFCC29"/>
<g clip-path="url(#clip0_142_82)">
<path d="M16.1071 8.94727H16.1035C12.1568 8.94727 8.94739 12.1576 8.94739 16.1052C8.94739 17.6709 9.45202 19.1222 10.3101 20.3006L9.41802 22.9597L12.1693 22.0802C13.3012 22.83 14.6513 23.2631 16.1071 23.2631C20.0538 23.2631 23.2632 20.0518 23.2632 16.1052C23.2632 12.1585 20.0538 8.94727 16.1071 8.94727ZM20.2721 19.0551C20.0994 19.5427 19.414 19.9472 18.8673 20.0653C18.4933 20.1449 18.0048 20.2084 16.3603 19.5266C14.2568 18.6552 12.9021 16.5176 12.7965 16.3789C12.6954 16.2403 11.9465 15.2471 11.9465 14.2199C11.9465 13.1928 12.4682 12.6926 12.6784 12.4779C12.8511 12.3016 13.1365 12.2211 13.4103 12.2211C13.4989 12.2211 13.5785 12.2256 13.6501 12.2292C13.8604 12.2381 13.966 12.2506 14.1047 12.5826C14.2773 12.9986 14.6979 14.0258 14.748 14.1314C14.799 14.2369 14.85 14.3801 14.7784 14.5188C14.7113 14.662 14.6522 14.7255 14.5467 14.8472C14.4411 14.9688 14.3409 15.0619 14.2353 15.1925C14.1387 15.3062 14.0295 15.4278 14.1512 15.6381C14.2729 15.8439 14.6934 16.5302 15.3125 17.0813C16.1115 17.7926 16.7593 18.0199 16.9911 18.1165C17.1638 18.1881 17.3695 18.1711 17.4957 18.0369C17.6559 17.8642 17.8536 17.5779 18.0549 17.2961C18.1981 17.0938 18.3788 17.0688 18.5685 17.1404C18.7618 17.2075 19.7844 17.713 19.9947 17.8177C20.205 17.9233 20.3437 17.9734 20.3947 18.0619C20.4448 18.1505 20.4448 18.5666 20.2721 19.0551Z" fill="#39373A"/>
</g>
<defs>
<clipPath id="clip0_142_82">
<rect width="14.3158" height="14.3158" fill="white" transform="translate(8.94739 8.94727)"/>
</clipPath>
</defs>
</svg>
