<?xml version="1.0" encoding="UTF-8"?>
<!DOCTYPE svg PUBLIC "-//W3C//DTD SVG 1.1//EN" "http://www.w3.org/Graphics/SVG/1.1/DTD/svg11.dtd">
<!-- Creator: CorelDRAW -->
<svg xmlns="http://www.w3.org/2000/svg" xml:space="preserve" width="15.875mm" height="15.875mm" version="1.1" style="shape-rendering:geometricPrecision; text-rendering:geometricPrecision; image-rendering:optimizeQuality; fill-rule:evenodd; clip-rule:evenodd"
viewBox="0 0 1587.5 1587.5"
 xmlns:xlink="http://www.w3.org/1999/xlink"
 xmlns:xodm="http://www.corel.com/coreldraw/odm/2003">
 <defs>
  <style type="text/css">
   <![CDATA[
    .fil4 {fill:none}
    .fil0 {fill:#38373A;fill-rule:nonzero}
    .fil1 {fill:#2E2D30;fill-rule:nonzero}
    .fil3 {fill:#D8D8D8;fill-rule:nonzero}
    .fil2 {fill:#F8FFFB;fill-rule:nonzero}
   ]]>
  </style>
   <clipPath id="id0">
    <path d="M-0 1587.5l1587.5 0 0 -1587.5 -1587.5 0 0 1587.5z"/>
   </clipPath>
 </defs>
 <g id="Слой_x0020_1">
  <metadata id="CorelCorpID_0Corel-Layer"/>
  <g>
  </g>
  <g style="clip-path:url(#id0)">
   <g id="_2727422611728">
    <path class="fil0" d="M793.75 1587.5c438.37,0 793.75,-355.38 793.75,-793.75 0,-438.37 -355.38,-793.75 -793.75,-793.75 -438.37,0 -793.75,355.38 -793.75,793.75 0,438.37 355.38,793.75 793.75,793.75z"/>
    <path class="fil1" d="M800.44 1061.63l-103.71 -91.99 -112.96 156.2 430.6 430.56c266.91,-77.08 475.98,-290.46 546.96,-559.91l-547.41 -547.4 -500.9 137.89 219.92 219.44 -11.24 50.03 172.75 167.06c0,-0.01 -59.36,44.53 -94.01,38.12z"/>
    <path class="fil2" d="M1013.92 449.1c-49.74,-55.43 -132.82,-88.53 -222.24,-88.53 -18.12,0 -36.29,1.67 -54.02,4.95l-5.45 1.01c-54.41,10.05 -103.71,35.06 -142.55,72.32 -38.07,36.53 -63.5,82.41 -73.55,132.68l-3.09 15.46 183.7 13.89 3.74 -9.65c10.64,-27.5 36.31,-48.11 66.98,-53.78l5.46 -1.01c34.65,-6.4 70.22,5.29 92.87,30.53 30.03,33.45 27.03,87.19 -6.55,117.35 -16.27,14.62 -96.34,31.5 -122.97,30.39l-14.55 -0.63 0 142.38 14.55 -0.63c26.81,-1.12 106.71,15.77 122.97,30.39 33.58,30.16 36.58,83.9 6.55,117.36 -22.65,25.24 -58.23,36.93 -92.87,30.52l-5.46 -1.01c-30.67,-5.67 -56.34,-26.28 -66.98,-53.78l-3.74 -9.65 -183.7 13.9 3.09 15.45c10.05,50.27 35.47,96.16 73.55,132.69 38.84,37.26 88.14,62.26 142.55,72.31l5.45 1.01c17.73,3.28 35.9,4.95 54.02,4.95 89.42,0 172.5,-33.1 222.24,-88.53 83.82,-93.39 79.86,-238.6 -7.15,-336.17 87.01,-97.57 90.97,-242.78 7.15,-336.17z"/>
    <path class="fil3" d="M1006.76 785.25c87.03,97.58 90.97,242.78 7.16,336.2 -49.36,54.97 -131.52,87.99 -220.17,88.49l0 -174.16c27.53,-0.52 53.95,-12.03 72.03,-32.21 30.01,-33.46 27.03,-87.19 -6.55,-117.36 -8.99,-8.06 -37.36,-16.84 -65.48,-22.88l0 -156.15c28.12,-6.04 56.49,-14.79 65.48,-22.85 33.58,-30.17 36.56,-83.9 6.55,-117.36 -18.08,-20.18 -44.5,-31.68 -72.03,-32.21l0 -174.16c88.65,0.5 170.81,33.48 220.17,88.49 83.81,93.39 79.87,238.59 -7.16,336.16z"/>
   </g>
  </g>
  <polygon class="fil4" points="-0,1587.5 1587.5,1587.5 1587.5,0 -0,0 "/>
 </g>
</svg>
